# xmcd
#
# Track frame offsets:
#	180
#	15453
#	27938
#	39608
#	52244
#	65249
#	79500
#	91496
#	103535
#	118031
#	130918
#	142904
#	153174
#	164776
#	176966
#	190098
#	203536
#	215471
#	234906
#	245979
#
# Disc length: 3438 seconds
#
# Revision: 1
# Processed by: cddbd v1.5.2PL0 Copyright (c) Steve Scherf et al.
# Submitted via: audiograbber 1.81.02
#
DISCID=1c0d6c14
DTITLE=Blues Compilation - Evil Man´s Blues
DYEAR=1900
DGENRE=Blues
TTITLE0=Hot Lips Page - Evil Man´s Blues
TTITLE1=Brownie McGhee - Be good to meTrack  2
TTITLE2=Big Joe Turner - Blues on Central Avenue
TTITLE3=Brownie McGhee and Blind Boy Fuller - good-bye now
TTITLE4=Arthur Big Boy Crudup - crudup´s after hours
TTITLE5=Big Boy Crudup - Chicago Blues
TTITLE6=David Edwards - Don´t be so evil
TTITLE7=John Lee Hooker - Burning Hell
TTITLE8=John Lee Hooker - 609 Boogie
TTITLE9=Willie Smith - 12th Street Rag
TTITLE10=Jimmy Witherspoon - love me baby
TTITLE11=John Lee Hooker - Walkin´this way
TTITLE12=Joe Williams - Every Day
TTITLE13=Lloyd Glenn - Boogie Woogie on st. Louis Blues
TTITLE14=Muddy Waters - She moves me
TTITLE15=Joe Williams - Kansas City Blues
TTITLE16=Freddie Slack - Pig Foot Pete Boogie
TTITLE17=John Lee Hooker - The Journey
TTITLE18=John Lee Hooker - I ain´t got nobody
TTITLE19=John Lee Hooker - guitar lovin´man
EXTD=
EXTT0=
EXTT1=
EXTT2=
EXTT3=
EXTT4=
EXTT5=
EXTT6=
EXTT7=
EXTT8=
EXTT9=
EXTT10=
EXTT11=
EXTT12=
EXTT13=
EXTT14=
EXTT15=
EXTT16=
EXTT17=
EXTT18=
EXTT19=
PLAYORDER=
